<svg width="64" height="64" xmlns="http://www.w3.org/2000/svg">
 <g>
  <title>Layer 1</title>
  <g>
   <path d="m342,71a2,2 0 0 1 2,-2l6,0a2,2 0 0 1 2,2l0,8a2,2 0 0 1 -2,2l-6,0a2,2 0 0 1 -2,-2l0,-8zm12.553,1.106a1,1 0 0 0 -0.553,0.894l0,4a1,1 0 0 0 0.553,0.894l2,1a1,1 0 0 0 1.447,-0.894l0,-6a1,1 0 0 0 -1.447,-0.894l-2,1z"/>
  </g>
  <g stroke="null">
   <path fill="#1971C2" stroke="null" d="m1.83366,16.91683a7.54159,7.54159 0 0 1 7.54159,-7.54159l22.62476,0a7.54159,7.54159 0 0 1 7.54159,7.54159l0,30.16634a7.54159,7.54159 0 0 1 -7.54159,7.54159l-22.62476,0a7.54159,7.54159 0 0 1 -7.54159,-7.54159l0,-30.16634zm47.33476,4.1705a3.77079,3.77079 0 0 0 -2.08525,3.37109l0,15.08317a3.77079,3.77079 0 0 0 2.08525,3.37109l7.54159,3.77079a3.77079,3.77079 0 0 0 5.45634,-3.37109l0,-22.62476a3.77079,3.77079 0 0 0 -5.45634,-3.37109l-7.54159,3.77079z"/>
  </g>
 </g>

</svg>